# xmcd
#
# Track frame offsets:
#	150
#	11192
#	23465
#	33462
#	45560
#	54582
#	63882
#	74480
#	84847
#	97137
#	107512
#	118665
#	129825
#	142550
#	153852
#	165770
#	175512
#	184660
#	195037
#	205965
#	216932
#	227975
#	238812
#	250435
#	260720
#	270705
#	282080
#	293090
#	302685
#	313512
#	323732
#	333645
#	344237
# Disc length: 4722 seconds
# Revision: 1
# Processed by: cddbd v1.5.1PL0 Copyright (c) Steve Scherf et al.
#
# Submitted via: libkcddb 0.10
#
DISCID=d1127021
DTITLE=Piano Red - Dr. Feelgood - The Doctor's In [CD 2)
DYEAR=1900
DGENRE=Blues
TTITLE0=Decatur Street Boogie 1954
TTITLE1=I Ain't Fattenin' Frogs For Snakes 1954
TTITLE2=Big Rock Joe From Kokomo 1993
TTITLE3=Pay It No Mind 1956
TTITLE4=Jump Man Jump 1956
TTITLE5=Do She Love Me 1956
TTITLE6=She Knocks Me Out 1956
TTITLE7=Peachtree Parade 1957
TTITLE8=Red's Blues 1955
TTITLE9=Six O'clock Bounce 1956
TTITLE10=Jumpin' With Daddy 1956
TTITLE11=Gordy's Rock 1955
TTITLE12=Real Good Thing 1955
TTITLE13=Goodbye (& The Four Students) 1955
TTITLE14=Please Tell Me Baby 1955
TTITLE15=You Were Mine For Awhile 1956
TTITLE16=Sweetest Little Something In The World (Ol' Man River) 1993
TTITLE17=Since I Fell For You 1993
TTITLE18=Woo-Ee 1956
TTITLE19=Rock, Baby 1957
TTITLE20=Teach Me To Forget 1993
TTITLE21=Wild Fire 1957
TTITLE22=Please Don't Talk About Me When I'm Gone 1957
TTITLE23=South 1957
TTITLE24=Coo Cha 1957
TTITLE25=Dixie Roll 1993
TTITLE26=Boston Scored 1993
TTITLE27=One Glimpse Of Heaven 1958
TTITLE28=Blues, Blues 1993
TTITLE29=Work With It 1993
TTITLE30=Eighter From Decatur 1958
TTITLE31=Please Come Back Home 1993
TTITLE32=Comin' On 1958
EXTD=
EXTT0=
EXTT1=
EXTT2=
EXTT3=
EXTT4=
EXTT5=
EXTT6=
EXTT7=
EXTT8=
EXTT9=
EXTT10=
EXTT11=
EXTT12=
EXTT13=
EXTT14=
EXTT15=
EXTT16=
EXTT17=
EXTT18=
EXTT19=
EXTT20=
EXTT21=
EXTT22=
EXTT23=
EXTT24=
EXTT25=
EXTT26=
EXTT27=
EXTT28=
EXTT29=
EXTT30=
EXTT31=
EXTT32=
PLAYORDER=
